<?xml version="1.0" standalone="no"?>
<!DOCTYPE svg PUBLIC "-//W3C//DTD SVG 20010904//EN"
 "http://www.w3.org/TR/2001/REC-SVG-20010904/DTD/svg10.dtd">
<svg version="1.0" xmlns="http://www.w3.org/2000/svg"
 width="32.000000pt" height="32.000000pt" viewBox="0 0 32.000000 32.000000"
 preserveAspectRatio="xMidYMid meet">

<g transform="translate(0.000000,32.000000) scale(0.100000,-0.100000)"
fill="#000000" stroke="none">
<path d="M160 203 l0 -88 -33 -15 c-23 -11 -32 -22 -32 -39 0 -35 29 -50 54
-27 17 15 21 33 23 103 3 79 4 83 21 70 10 -7 22 -29 27 -47 l8 -35 1 34 c1
22 -10 50 -31 82 -17 27 -33 49 -35 49 -2 0 -3 -39 -3 -87z"/>
</g>
</svg>
